<?xml version="1.0" encoding="UTF-8" standalone="no"?>
<!-- Created with Inkscape (http://www.inkscape.org/) -->

<svg
   xmlns:dc="http://purl.org/dc/elements/1.1/"
   xmlns:cc="http://creativecommons.org/ns#"
   xmlns:rdf="http://www.w3.org/1999/02/22-rdf-syntax-ns#"
   xmlns:svg="http://www.w3.org/2000/svg"
   xmlns="http://www.w3.org/2000/svg"
   xmlns:xlink="http://www.w3.org/1999/xlink"
   xmlns:sodipodi="http://sodipodi.sourceforge.net/DTD/sodipodi-0.dtd"
   xmlns:inkscape="http://www.inkscape.org/namespaces/inkscape"
   width="492.29401mm"
   height="96.195mm"
   viewBox="0 0 492.29401 96.195"
   version="1.1"
   id="svg4910"
   inkscape:version="0.92.5 (2060ec1f9f, 2020-04-08)"
   sodipodi:docname="text.svg">
  <defs
     id="defs4904">
    <linearGradient
       inkscape:collect="always"
       xlink:href="#linearGradient3456"
       id="linearGradient4505"
       gradientUnits="userSpaceOnUse"
       x1="3524.2458"
       y1="897.62256"
       x2="3907.8867"
       y2="972.6759" />
    <linearGradient
       inkscape:collect="always"
       id="linearGradient3456">
      <stop
         style="stop-color:#004d99;stop-opacity:1"
         offset="0"
         id="stop3460" />
      <stop
         style="stop-color:#1a8cff;stop-opacity:1"
         offset="1"
         id="stop3462" />
    </linearGradient>
    <linearGradient
       inkscape:collect="always"
       xlink:href="#linearGradient3456"
       id="linearGradient4956"
       gradientUnits="userSpaceOnUse"
       x1="3524.2458"
       y1="897.62256"
       x2="3907.8867"
       y2="972.6759" />
    <linearGradient
       inkscape:collect="always"
       xlink:href="#linearGradient3456"
       id="linearGradient4958"
       gradientUnits="userSpaceOnUse"
       x1="3524.2458"
       y1="897.62256"
       x2="3907.8867"
       y2="972.6759" />
    <linearGradient
       inkscape:collect="always"
       xlink:href="#linearGradient3456"
       id="linearGradient4960"
       gradientUnits="userSpaceOnUse"
       x1="3524.2458"
       y1="897.62256"
       x2="3907.8867"
       y2="972.6759" />
    <linearGradient
       inkscape:collect="always"
       xlink:href="#linearGradient3456"
       id="linearGradient4962"
       gradientUnits="userSpaceOnUse"
       x1="3524.2458"
       y1="897.62256"
       x2="3907.8867"
       y2="972.6759" />
    <linearGradient
       inkscape:collect="always"
       xlink:href="#linearGradient3456"
       id="linearGradient4964"
       gradientUnits="userSpaceOnUse"
       x1="3524.2458"
       y1="897.62256"
       x2="3907.8867"
       y2="972.6759" />
  </defs>
  <sodipodi:namedview
     id="base"
     pagecolor="#ffffff"
     bordercolor="#666666"
     borderopacity="1.0"
     inkscape:pageopacity="0.0"
     inkscape:pageshadow="2"
     inkscape:zoom="0.35"
     inkscape:cx="0"
     inkscape:cy="560"
     inkscape:document-units="mm"
     inkscape:current-layer="layer1"
     showgrid="false"
     inkscape:pagecheckerboard="true"
     inkscape:window-width="2482"
     inkscape:window-height="870"
     inkscape:window-x="72"
     inkscape:window-y="27"
     inkscape:window-maximized="1" />
  <metadata
     id="metadata4907">
    <rdf:RDF>
      <cc:Work
         rdf:about="">
        <dc:format>image/svg+xml</dc:format>
        <dc:type
           rdf:resource="http://purl.org/dc/dcmitype/StillImage" />
        <dc:title></dc:title>
      </cc:Work>
    </rdf:RDF>
  </metadata>
  <g
     inkscape:label="Layer 1"
     inkscape:groupmode="layer"
     id="layer1"
     transform="translate(0,-200.805)">
    <g
       aria-label="SHEET"
       id="text1745-5"
       style="font-size:64.51740265px;line-height:1.25;font-family:Chopsic;-inkscape-font-specification:'Chopsic, Normal';fill:url(#linearGradient4505);fill-opacity:1;fill-rule:nonzero;stroke-width:1.61293995"
       transform="matrix(1.796215,0,0,1.796215,-6421.5668,-1428.5615)"
       inkscape:export-xdpi="90.90979"
       inkscape:export-ydpi="90.90979">
      <path
         inkscape:connector-curvature="0"
         d="m 3638.06,911.83637 -12.6011,12.60106 h -29.9275 q -0.6615,0 -1.1341,0.47254 -0.441,0.44103 -0.441,1.10259 0,0.66155 0.441,1.13409 0.4726,0.44104 1.1341,0.44104 h 22.0519 q 5.8594,0 10.0178,4.15835 4.1583,4.15835 4.1583,10.01784 0,5.85949 -4.1583,10.01784 -4.1584,4.15834 -10.0178,4.15834 h -42.5286 l 12.6011,-12.60105 h 29.9275 q 0.6615,0 1.1026,-0.44104 0.4725,-0.47254 0.4725,-1.13409 0,-0.66156 -0.4725,-1.1026 -0.4411,-0.47254 -1.1026,-0.47254 h -22.0519 q -5.8595,0 -10.0178,-4.15834 -4.1584,-4.15835 -4.1584,-10.01784 0,-5.85949 4.1584,-10.01784 4.1583,-4.15835 10.0178,-4.15835 z"
         id="path2982-4"
         style="fill:url(#linearGradient4956);fill-opacity:1;fill-rule:nonzero" />
      <path
         inkscape:connector-curvature="0"
         d="m 3647.5108,940.18874 v 15.75132 h -12.6011 v -36.22803 l 12.6011,-12.60106 v 20.47672 h 25.2021 v -15.75132 h 12.601 v 36.22803 l -12.601,12.60106 v -20.47672 z"
         id="path2984-76"
         style="fill:url(#linearGradient4958);fill-opacity:1;fill-rule:nonzero" />
      <path
         inkscape:connector-curvature="0"
         d="m 3701.0653,943.33901 h 37.8031 v 12.60105 h -50.4042 v -44.10369 h 56.7047 l -12.601,12.60106 h -31.5026 v 3.15026 h 31.5026 v 12.60105 h -31.5026 z"
         id="path2986-5"
         style="fill:url(#linearGradient4960);fill-opacity:1;fill-rule:nonzero" />
      <path
         inkscape:connector-curvature="0"
         d="m 3754.6197,943.33901 h 37.8032 v 12.60105 h -50.4042 v -44.10369 h 56.7047 l -12.601,12.60106 h -31.5027 v 3.15026 h 31.5027 v 12.60105 h -31.5027 z"
         id="path2988-69"
         style="fill:url(#linearGradient4962);fill-opacity:1;fill-rule:nonzero" />
      <path
         inkscape:connector-curvature="0"
         d="m 3849.1276,911.83637 -12.601,12.60106 h -12.6011 v 23.62697 l -12.601,12.60106 v -36.22803 h -18.9016 v -12.60106 z"
         id="path2990-3"
         style="fill:url(#linearGradient4964);fill-opacity:1;fill-rule:nonzero" />
    </g>
  </g>
</svg>
